<svg width="100%" height="100%" viewBox="0 0 1600 900"  fill="true" xmlns="http://www.w3.org/2000/svg">
<g clip-path="url(#clip0_750_718)" filter="url(#filter0_d_750_718)">
<path d="M97.4898 481.511C118.738 481.919 140.35 475.797 154.121 465.424C169.449 453.89 177.972 440.565 180.144 424.707C181.664 413.376 179.954 405.159 173.789 394.913C167.835 384.813 162.944 380.989 155.262 380.458C148.164 379.896 142.585 382.441 138.641 388.11C132.96 396.184 134.299 402.153 143.464 410.868C149.989 417.007 150.943 419.224 149.058 424.265C147.189 429.194 135.85 437.954 127.971 440.398C118.972 443.373 105.116 442.298 94.7633 437.801C73.1838 428.451 59.144 400.551 62.9476 374.186C65.1515 358.91 71.514 350.126 85.4118 342.89C111.65 329.58 136.627 329.833 169.887 344.104C183.739 350.029 196.941 357.247 231.038 377.76C262.154 396.457 277.463 403.517 293.684 406.666C320.584 412.048 339.162 408.491 385.731 389.105C423.675 373.325 441.411 368.376 465.125 366.946C490.719 365.325 528.637 373.798 562.934 388.911C597.134 403.894 628.249 423.4 691.931 470.012C754.577 515.782 793.549 539.424 832.513 555.094C871.364 570.749 912.879 579.972 937.874 578.496C973.955 576.424 1009.19 564.989 1094.69 527.771C1156.47 500.876 1178.98 492.572 1199.9 488.777C1220.82 485.094 1266.76 488.489 1293.27 495.778C1343.63 509.512 1386.28 536.572 1423.56 578.337C1438.02 594.514 1441.47 597.091 1440.52 590.832C1439.83 586.805 1425.47 567.523 1414.33 555.636C1379.01 517.965 1336.44 491.148 1286.92 475.572C1271.97 470.873 1230.27 464.511 1214.63 464.565C1185.1 464.578 1157.47 472.259 1078.56 502.342C989.832 536.207 959.222 544.497 924.845 544.389C910.841 544.332 878.174 536.385 852.802 526.834C809.074 510.476 776.58 490.887 702.55 436.545C662.967 407.501 648.325 397.419 626.393 384.09C594.354 364.567 569.519 352.898 538.929 342.594C510.656 333.086 490.384 329.122 468.762 328.89C443.446 328.588 422.307 332.237 380.397 344.21C341.616 355.364 330.381 357.786 314.367 358.017C292.324 358.302 280.076 353.301 233.377 325.426C180.49 293.885 155.411 283.106 124.215 278.605C94.7211 274.35 68.4111 278.524 39.9358 292.089C18.6768 302.19 6.37925 313.584 -0.720401 329.886C-5.51289 340.63 -10.918 379.701 -9.26163 392.299C-5.7578 420.989 10.6048 444.026 41.1858 463.223C59.5537 474.767 79.1264 481.172 97.4898 481.511Z" fill="#3A3E8C" fill-opacity="0.9"/>
</g>
<defs>
<filter id="filter0_d_750_718" x="-64.416" y="-3.7832" width="1564.5" height="941.668" filterUnits="userSpaceOnUse" color-interpolation-filters="sRGB">
<feFlood flood-opacity="0" result="BackgroundImageFix"/>
<feColorMatrix in="SourceAlpha" type="matrix" values="0 0 0 0 0 0 0 0 0 0 0 0 0 0 0 0 0 0 127 0" result="hardAlpha"/>
<feOffset/>
<feGaussianBlur stdDeviation="2"/>
<feComposite in2="hardAlpha" operator="out"/>
<feColorMatrix type="matrix" values="0 0 0 0 0 0 0 0 0 0 0 0 0 0 0 0 0 0 1 0"/>
<feBlend mode="normal" in2="BackgroundImageFix" result="effect1_dropShadow_750_718"/>
<feBlend mode="normal" in="SourceGraphic" in2="effect1_dropShadow_750_718" result="shape"/>
</filter>
<clipPath id="clip0_750_718">
<rect width="1467.06" height="731.683" fill="white" transform="translate(1391.61 933.885) rotate(-171.791)"/>
</clipPath>
</defs>
</svg>
