<svg width="1440" height="415" viewBox="0 0 1440 415" fill="none" xmlns="http://www.w3.org/2000/svg">
<path d="M97.4898 221.511C118.738 221.919 140.35 215.797 154.121 205.424C169.449 193.89 177.972 180.565 180.144 164.707C181.664 153.376 179.954 145.159 173.789 134.913C167.835 124.813 162.944 120.989 155.262 120.458C148.164 119.896 142.585 122.441 138.641 128.11C132.96 136.184 134.299 142.153 143.464 150.868C149.989 157.007 150.943 159.224 149.058 164.265C147.189 169.194 135.85 177.954 127.971 180.398C118.972 183.373 105.116 182.298 94.7633 177.801C73.1838 168.451 59.144 140.551 62.9476 114.186C65.1515 98.9104 71.514 90.1256 85.4118 82.8898C111.65 69.5799 136.627 69.8335 169.887 84.1037C183.739 90.0294 196.941 97.2475 231.038 117.76C262.154 136.457 277.463 143.517 293.684 146.666C320.584 152.048 339.162 148.491 385.731 129.105C423.675 113.325 441.411 108.376 465.125 106.946C490.719 105.325 528.637 113.798 562.934 128.911C597.134 143.894 628.249 163.4 691.931 210.012C754.577 255.782 793.549 279.424 832.513 295.094C871.364 310.749 912.879 319.972 937.874 318.496C973.955 316.424 1009.19 304.989 1094.69 267.771C1156.47 240.876 1178.98 232.572 1199.9 228.777C1220.82 225.094 1266.76 228.489 1293.27 235.778C1343.63 249.512 1386.28 276.572 1423.56 318.337C1438.02 334.514 1441.47 337.091 1440.52 330.832C1439.83 326.805 1425.47 307.523 1414.33 295.636C1379.01 257.965 1336.44 231.148 1286.92 215.572C1271.97 210.873 1230.27 204.511 1214.63 204.565C1185.1 204.578 1157.47 212.259 1078.56 242.342C989.832 276.207 959.222 284.497 924.845 284.389C910.841 284.332 878.174 276.385 852.802 266.834C809.074 250.476 776.58 230.887 702.55 176.545C662.967 147.501 648.325 137.419 626.393 124.09C594.354 104.567 569.519 92.8981 538.929 82.5939C510.656 73.086 490.384 69.1218 468.762 68.8902C443.446 68.5876 422.307 72.2374 380.397 84.2105C341.616 95.3643 330.381 97.7863 314.367 98.0173C292.324 98.3024 280.076 93.3011 233.377 65.4256C180.49 33.8853 155.411 23.1056 124.215 18.605C94.7211 14.3498 68.4111 18.5242 39.9358 32.089C18.6768 42.19 6.37925 53.5839 -0.720401 69.886C-5.51289 80.63 -10.918 119.701 -9.26163 132.299C-5.7578 160.989 10.6048 184.026 41.1858 203.223C59.5537 214.767 79.1264 221.172 97.4898 221.511Z" fill="#3A3E8C" fill-opacity="0.9"/>
</svg>
