<svg width="40" height="41" viewBox="0 0 40 41" fill="none" xmlns="http://www.w3.org/2000/svg">
<path d="M26.6663 17.2923L26.333 18.959H22.4997C22.2787 18.959 22.0667 19.0468 21.9104 19.2031C21.7541 19.3593 21.6663 19.5713 21.6663 19.7923C21.6663 20.0133 21.7541 20.2253 21.9104 20.3816C22.0667 20.5379 22.2787 20.6257 22.4997 20.6257H25.9997L24.333 28.959H20.833C20.612 28.959 20.4 29.0468 20.2438 29.2031C20.0875 29.3593 19.9997 29.5713 19.9997 29.7923C19.9997 30.0133 20.0875 30.2253 20.2438 30.3816C20.4 30.5379 20.612 30.6257 20.833 30.6257H23.9997L23.333 33.959C23.333 34.843 22.9818 35.6909 22.3567 36.316C21.7316 36.9411 20.8837 37.2923 19.9997 37.2923C19.1156 37.2923 18.2678 36.9411 17.6427 36.316C17.0175 35.6909 16.6663 34.843 16.6663 33.959L14.9997 25.6257H17.4997C17.7207 25.6257 17.9327 25.5379 18.0889 25.3816C18.2452 25.2253 18.333 25.0133 18.333 24.7923C18.333 24.5713 18.2452 24.3593 18.0889 24.2031C17.9327 24.0468 17.7207 23.959 17.4997 23.959H14.6663L13.333 17.2923C13.333 15.2923 14.883 13.5757 17.1497 12.7757L14.833 9.42565C14.3163 8.65899 14.4997 7.62565 15.2663 7.10898C16.0163 6.57565 17.0497 6.77565 17.583 7.52565L18.333 8.62565V5.62565C18.333 5.18362 18.5086 4.7597 18.8212 4.44714C19.1337 4.13458 19.5576 3.95898 19.9997 3.95898C20.4417 3.95898 20.8656 4.13458 21.1782 4.44714C21.4907 4.7597 21.6663 5.18362 21.6663 5.62565V9.42565L24.1663 6.52565C24.7163 5.82565 25.783 5.74232 26.483 6.34232C27.183 6.92565 27.2663 7.97565 26.6663 8.69232L23.1163 12.8757C25.233 13.709 26.6663 15.3757 26.6663 17.2923Z" fill="#FF005C"/>
</svg>
