<svg width="100%" height="100%" viewBox="0 0 218 202" fill="none" xmlns="http://www.w3.org/2000/svg">
<g filter="url(#filter0_d_750_1023)">
<rect x="6" y="6.25391" width="206" height="189.689" rx="16" fill="#F9F9F9"/>
</g>
<path d="M142.49 117.509C143.108 112.158 143.572 106.807 143.572 101.294C143.572 95.7802 143.108 90.429 142.49 85.0778H168.623C169.86 90.2669 170.633 95.6991 170.633 101.294C170.633 106.888 169.86 112.32 168.623 117.509M128.804 162.589C133.443 153.589 137 143.86 139.474 133.725H162.283C154.86 147.103 143.031 157.481 128.804 162.589ZM126.872 117.509H90.6874C89.9142 112.158 89.4503 106.807 89.4503 101.294C89.4503 95.7802 89.9142 90.3479 90.6874 85.0778H126.872C127.567 90.3479 128.109 95.7802 128.109 101.294C128.109 106.807 127.567 112.158 126.872 117.509ZM108.779 165.832C102.362 156.103 97.182 145.319 94.012 133.725H123.547C120.377 145.319 115.197 156.103 108.779 165.832ZM77.8528 68.8621H55.2764C62.6215 55.403 74.5282 45.0249 88.6772 39.9981C84.0382 48.9978 80.5589 58.7272 77.8528 68.8621ZM55.2764 133.725H77.8528C80.5589 143.86 84.0382 153.589 88.6772 162.589C74.5282 157.481 62.6215 147.103 55.2764 133.725ZM48.9364 117.509C47.6994 112.32 46.9262 106.888 46.9262 101.294C46.9262 95.6991 47.6994 90.2669 48.9364 85.0778H75.0694C74.4509 90.429 73.987 95.7802 73.987 101.294C73.987 106.807 74.4509 112.158 75.0694 117.509M108.779 36.6738C115.197 46.4033 120.377 57.2678 123.547 68.8621H94.012C97.182 57.2678 102.362 46.4033 108.779 36.6738ZM162.283 68.8621H139.474C137 58.7272 133.443 48.9978 128.804 39.9981C143.031 45.106 154.86 55.403 162.283 68.8621ZM108.779 20.2148C66.0234 20.2148 31.4629 56.7003 31.4629 101.294C31.4629 122.797 39.6087 143.42 54.1084 158.625C61.2879 166.154 69.8112 172.126 79.1917 176.201C88.5722 180.275 98.6261 182.372 108.779 182.372C129.285 182.372 148.951 173.83 163.451 158.625C177.95 143.42 186.096 122.797 186.096 101.294C186.096 90.6462 184.096 80.103 180.211 70.2661C176.325 60.4292 170.63 51.4911 163.451 43.9623C156.271 36.4334 147.748 30.4612 138.367 26.3866C128.987 22.312 118.933 20.2148 108.779 20.2148Z" fill="#BB4141"/>
<defs>
<filter id="filter0_d_750_1023" x="0" y="0.253906" width="218" height="201.689" filterUnits="userSpaceOnUse" color-interpolation-filters="sRGB">
<feFlood flood-opacity="0" result="BackgroundImageFix"/>
<feColorMatrix in="SourceAlpha" type="matrix" values="0 0 0 0 0 0 0 0 0 0 0 0 0 0 0 0 0 0 127 0" result="hardAlpha"/>
<feOffset/>
<feGaussianBlur stdDeviation="3"/>
<feComposite in2="hardAlpha" operator="out"/>
<feColorMatrix type="matrix" values="0 0 0 0 0.227451 0 0 0 0 0.243137 0 0 0 0 0.54902 0 0 0 1 0"/>
<feBlend mode="normal" in2="BackgroundImageFix" result="effect1_dropShadow_750_1023"/>
<feBlend mode="normal" in="SourceGraphic" in2="effect1_dropShadow_750_1023" result="shape"/>
</filter>
</defs>
</svg>
