<svg width="218" height="202" viewBox="0 0 218 202" fill="none" xmlns="http://www.w3.org/2000/svg">
<g filter="url(#filter0_d_750_1039)">
<rect x="6" y="6.19336" width="206" height="189.689" rx="16" fill="#F9F9F9"/>
</g>
<path d="M141.496 85.278L139.889 93.2864H121.418C120.353 93.2864 119.332 93.7083 118.579 94.4592C117.826 95.2101 117.403 96.2286 117.403 97.2906C117.403 98.3526 117.826 99.3711 118.579 100.122C119.332 100.873 120.353 101.295 121.418 101.295H138.283L130.252 141.337H113.387C112.322 141.337 111.301 141.759 110.548 142.51C109.795 143.26 109.372 144.279 109.372 145.341C109.372 146.403 109.795 147.421 110.548 148.172C111.301 148.923 112.322 149.345 113.387 149.345H128.646L125.434 165.362C125.434 169.61 123.741 173.684 120.729 176.687C117.717 179.691 113.632 181.379 109.372 181.379C105.112 181.379 101.027 179.691 98.0144 176.687C95.0022 173.684 93.3099 169.61 93.3099 165.362L85.279 125.32H97.3254C98.3904 125.32 99.4117 124.898 100.165 124.147C100.918 123.396 101.341 122.378 101.341 121.316C101.341 120.254 100.918 119.235 100.165 118.484C99.4117 117.733 98.3904 117.312 97.3254 117.312H83.6728L77.248 85.278C77.248 75.668 84.7168 67.4193 95.6389 63.5753L84.4759 47.4784C81.9863 43.7946 82.8697 38.8294 86.5639 36.3468C90.1779 33.7841 95.1571 34.7451 97.727 38.3489L101.341 43.6344V29.2193C101.341 27.0954 102.187 25.0584 103.693 23.5565C105.199 22.0547 107.242 21.2109 109.372 21.2109C111.502 21.2109 113.544 22.0547 115.051 23.5565C116.557 25.0584 117.403 27.0954 117.403 29.2193V47.4784L129.449 33.5439C132.099 30.1803 137.239 29.7799 140.612 32.6629C143.985 35.4659 144.387 40.5112 141.496 43.9548L124.39 64.0558C134.589 68.06 141.496 76.0684 141.496 85.278Z" fill="#FF005C"/>
<defs>
<filter id="filter0_d_750_1039" x="0" y="0.193359" width="218" height="201.689" filterUnits="userSpaceOnUse" color-interpolation-filters="sRGB">
<feFlood flood-opacity="0" result="BackgroundImageFix"/>
<feColorMatrix in="SourceAlpha" type="matrix" values="0 0 0 0 0 0 0 0 0 0 0 0 0 0 0 0 0 0 127 0" result="hardAlpha"/>
<feOffset/>
<feGaussianBlur stdDeviation="3"/>
<feComposite in2="hardAlpha" operator="out"/>
<feColorMatrix type="matrix" values="0 0 0 0 0.227451 0 0 0 0 0.243137 0 0 0 0 0.54902 0 0 0 1 0"/>
<feBlend mode="normal" in2="BackgroundImageFix" result="effect1_dropShadow_750_1039"/>
<feBlend mode="normal" in="SourceGraphic" in2="effect1_dropShadow_750_1039" result="shape"/>
</filter>
</defs>
</svg>
