<svg width="218" height="202" viewBox="0 0 218 202" fill="none" xmlns="http://www.w3.org/2000/svg">
<g filter="url(#filter0_d_750_1031)">
<rect x="6" y="6.25391" width="206" height="189.689" rx="16" fill="#F9F9F9"/>
</g>
<path d="M41.52 34.0156H175.602C180.047 34.0156 184.31 35.7765 187.453 38.9108C190.596 42.0451 192.362 46.2962 192.362 50.7288V151.008C192.362 155.44 190.596 159.691 187.453 162.826C184.31 165.96 180.047 167.721 175.602 167.721H41.52C37.0749 167.721 32.8119 165.96 29.6687 162.826C26.5256 159.691 24.7598 155.44 24.7598 151.008V50.7288C24.7598 46.2962 26.5256 42.0451 29.6687 38.9108C32.8119 35.7765 37.0749 34.0156 41.52 34.0156ZM41.52 50.7288V151.008H100.181V50.7288H41.52ZM175.602 151.008V50.7288H165.211C167.222 55.2413 166.803 59.6703 166.803 60.1717C166.216 65.7706 162.278 71.6202 160.853 73.7094L141.327 95.0186L169.149 94.8515L169.233 105.047L125.656 104.796L125.321 96.4393C125.321 96.4393 150.881 69.4475 152.138 67.0241C153.311 64.6843 158.087 50.7288 146.272 50.7288C135.964 51.1466 137.137 61.5923 137.137 61.5923L124.232 61.6759C124.232 61.6759 124.316 56.1606 127.416 50.7288H116.941V151.008H138.562L138.478 143.821L146.607 143.737C146.607 143.737 154.233 142.4 154.316 134.963C154.652 126.606 147.529 126.606 146.272 126.606C145.182 126.606 137.305 127.024 137.305 133.877H124.567C124.567 133.877 124.902 116.662 146.272 116.662C168.06 116.662 166.887 133.542 166.887 133.542C166.887 133.542 167.222 143.988 157.585 147.916L161.942 151.008H175.602ZM82.7502 134.295H70.18V85.8264L55.0958 90.5061V80.2275L81.4094 70.8681H82.7502V134.295Z" fill="#FFD600"/>
<defs>
<filter id="filter0_d_750_1031" x="0" y="0.253906" width="218" height="201.689" filterUnits="userSpaceOnUse" color-interpolation-filters="sRGB">
<feFlood flood-opacity="0" result="BackgroundImageFix"/>
<feColorMatrix in="SourceAlpha" type="matrix" values="0 0 0 0 0 0 0 0 0 0 0 0 0 0 0 0 0 0 127 0" result="hardAlpha"/>
<feOffset/>
<feGaussianBlur stdDeviation="3"/>
<feComposite in2="hardAlpha" operator="out"/>
<feColorMatrix type="matrix" values="0 0 0 0 0.227451 0 0 0 0 0.243137 0 0 0 0 0.54902 0 0 0 1 0"/>
<feBlend mode="normal" in2="BackgroundImageFix" result="effect1_dropShadow_750_1031"/>
<feBlend mode="normal" in="SourceGraphic" in2="effect1_dropShadow_750_1031" result="shape"/>
</filter>
</defs>
</svg>
