<svg width="43" height="45" viewBox="0 0 43 45" fill="none" xmlns="http://www.w3.org/2000/svg">
<path d="M21.4997 4.29102C11.6455 4.29102 3.58301 12.541 3.58301 22.6244C3.58301 32.7077 11.6455 40.9577 21.4997 40.9577C31.3538 40.9577 39.4163 32.7077 39.4163 22.6244C39.4163 12.541 31.3538 4.29102 21.4997 4.29102ZM17.1997 32.1577C16.8055 32.1577 16.268 32.011 15.7663 31.791L14.7451 34.3577L12.7026 33.6244L12.9893 32.9094C15.1393 27.3727 17.6118 21.066 26.8747 18.9577C26.8747 18.9577 16.1247 18.9577 12.6309 29.1327C12.6309 29.1327 10.7497 27.2077 10.7497 25.0077C10.7497 22.8077 12.8997 18.1327 18.2747 17.0327C19.7976 16.721 21.4997 16.4827 23.1838 16.2077C27.4122 15.621 31.4793 15.0344 32.2497 13.4577C32.2497 13.4577 29.0247 32.1577 17.1997 32.1577Z" fill="#07E103"/>
</svg>
