<svg width="40" height="41" viewBox="0 0 40 41" fill="none" xmlns="http://www.w3.org/2000/svg">
<path d="M6.66634 7.29102H33.333C34.2171 7.29102 35.0649 7.6422 35.69 8.26733C36.3152 8.89245 36.6663 9.74029 36.6663 10.6243V30.6243C36.6663 31.5084 36.3152 32.3562 35.69 32.9814C35.0649 33.6065 34.2171 33.9577 33.333 33.9577H6.66634C5.78229 33.9577 4.93444 33.6065 4.30932 32.9814C3.6842 32.3562 3.33301 31.5084 3.33301 30.6243V10.6243C3.33301 9.74029 3.6842 8.89245 4.30932 8.26733C4.93444 7.6422 5.78229 7.29102 6.66634 7.29102ZM6.66634 10.6243V30.6243H18.333V10.6243H6.66634ZM33.333 30.6243V10.6243H31.2663C31.6663 11.5243 31.583 12.4077 31.583 12.5077C31.4663 13.6243 30.683 14.791 30.3997 15.2077L26.5163 19.4577L32.0497 19.4243L32.0663 21.4577L23.3997 21.4077L23.333 19.741C23.333 19.741 28.4163 14.3577 28.6663 13.8743C28.8997 13.4077 29.8497 10.6243 27.4997 10.6243C25.4497 10.7077 25.683 12.791 25.683 12.791L23.1163 12.8077C23.1163 12.8077 23.133 11.7077 23.7497 10.6243H21.6663V30.6243H25.9663L25.9497 29.191L27.5663 29.1743C27.5663 29.1743 29.083 28.9077 29.0997 27.4243C29.1663 25.7577 27.7497 25.7577 27.4997 25.7577C27.283 25.7577 25.7163 25.841 25.7163 27.2077H23.183C23.183 27.2077 23.2497 23.7743 27.4997 23.7743C31.833 23.7743 31.5997 27.141 31.5997 27.141C31.5997 27.141 31.6663 29.2243 29.7497 30.0077L30.6163 30.6243H33.333ZM14.8663 27.291H12.3663V17.6243L9.36634 18.5577V16.5077L14.5997 14.641H14.8663V27.291Z" fill="#FFD600"/>
</svg>
