<svg width="44" height="45" viewBox="0 0 44 45" fill="none" xmlns="http://www.w3.org/2000/svg">
<path d="M29.9937 26.291C30.1403 25.081 30.2503 23.871 30.2503 22.6244C30.2503 21.3777 30.1403 20.1677 29.9937 18.9577H36.1903C36.4837 20.131 36.667 21.3594 36.667 22.6244C36.667 23.8894 36.4837 25.1177 36.1903 26.291M26.7487 36.4844C27.8487 34.4494 28.692 32.2494 29.2787 29.9577H34.687C32.927 32.9827 30.122 35.3294 26.7487 36.4844ZM26.2903 26.291H17.7103C17.527 25.081 17.417 23.871 17.417 22.6244C17.417 21.3777 17.527 20.1494 17.7103 18.9577H26.2903C26.4553 20.1494 26.5837 21.3777 26.5837 22.6244C26.5837 23.871 26.4553 25.081 26.2903 26.291ZM22.0003 37.2177C20.4787 35.0177 19.2503 32.5794 18.4987 29.9577H25.502C24.7503 32.5794 23.522 35.0177 22.0003 37.2177ZM14.667 15.291H9.31366C11.0553 12.2477 13.8787 9.90102 17.2337 8.76435C16.1337 10.7994 15.3087 12.9994 14.667 15.291ZM9.31366 29.9577H14.667C15.3087 32.2494 16.1337 34.4494 17.2337 36.4844C13.8787 35.3294 11.0553 32.9827 9.31366 29.9577ZM7.81033 26.291C7.51699 25.1177 7.33366 23.8894 7.33366 22.6244C7.33366 21.3594 7.51699 20.131 7.81033 18.9577H14.007C13.8603 20.1677 13.7503 21.3777 13.7503 22.6244C13.7503 23.871 13.8603 25.081 14.007 26.291M22.0003 8.01268C23.522 10.2127 24.7503 12.6694 25.502 15.291H18.4987C19.2503 12.6694 20.4787 10.2127 22.0003 8.01268ZM34.687 15.291H29.2787C28.692 12.9994 27.8487 10.7994 26.7487 8.76435C30.122 9.91935 32.927 12.2477 34.687 15.291ZM22.0003 4.29102C11.862 4.29102 3.66699 12.541 3.66699 22.6244C3.66699 27.4867 5.59853 32.1498 9.0367 35.588C10.7391 37.2904 12.7602 38.6408 14.9845 39.5621C17.2088 40.4835 19.5928 40.9577 22.0003 40.9577C26.8626 40.9577 31.5258 39.0261 34.964 35.588C38.4021 32.1498 40.3337 27.4867 40.3337 22.6244C40.3337 20.2168 39.8595 17.8328 38.9381 15.6085C38.0168 13.3842 36.6664 11.3631 34.964 9.66073C33.2615 7.95832 31.2405 6.60789 29.0162 5.68656C26.7919 4.76522 24.4079 4.29102 22.0003 4.29102V4.29102Z" fill="#BB4141"/>
</svg>
